<svg xmlns="http://www.w3.org/2000/svg" width="600" height="600" viewBox="0 0 600 600">
<defs>
<radialGradient id="g15" cx="42%" cy="38%" r="75%">
<stop offset="0%" stop-color="#153a2f"/><stop offset="55%" stop-color="#0e2a22"/><stop offset="100%" stop-color="#0a0f0d"/>
</radialGradient>
<radialGradient id="p15" cx="45%" cy="42%" r="60%">
<stop offset="0%" stop-color="#1c4638"/><stop offset="100%" stop-color="#0c231c"/>
</radialGradient>
</defs>
<rect width="600" height="600" fill="url(#g15)"/>
<circle cx="498" cy="260" r="2.8" fill="#c9a24b" opacity="0.09"/><circle cx="502" cy="284" r="3.2" fill="#c9a24b" opacity="0.17"/><circle cx="486" cy="91" r="1.6" fill="#c9a24b" opacity="0.11"/><circle cx="241" cy="101" r="1.7" fill="#c9a24b" opacity="0.10"/><circle cx="479" cy="100" r="3.0" fill="#c9a24b" opacity="0.10"/><circle cx="523" cy="197" r="1.6" fill="#c9a24b" opacity="0.13"/><circle cx="117" cy="391" r="2.4" fill="#c9a24b" opacity="0.12"/><circle cx="36" cy="189" r="2.6" fill="#c9a24b" opacity="0.12"/><circle cx="494" cy="98" r="2.2" fill="#c9a24b" opacity="0.21"/><circle cx="514" cy="323" r="1.4" fill="#c9a24b" opacity="0.21"/><circle cx="201" cy="73" r="1.7" fill="#c9a24b" opacity="0.14"/><circle cx="460" cy="176" r="1.3" fill="#c9a24b" opacity="0.07"/><circle cx="23" cy="350" r="2.4" fill="#c9a24b" opacity="0.12"/><circle cx="81" cy="297" r="3.4" fill="#c9a24b" opacity="0.12"/><circle cx="321" cy="507" r="3.1" fill="#c9a24b" opacity="0.11"/><circle cx="493" cy="181" r="2.1" fill="#c9a24b" opacity="0.07"/><circle cx="532" cy="163" r="2.2" fill="#c9a24b" opacity="0.08"/><circle cx="63" cy="310" r="3.1" fill="#c9a24b" opacity="0.21"/><circle cx="287" cy="94" r="1.1" fill="#c9a24b" opacity="0.20"/><circle cx="504" cy="233" r="2.2" fill="#c9a24b" opacity="0.14"/><circle cx="503" cy="273" r="1.2" fill="#c9a24b" opacity="0.19"/><circle cx="77" cy="206" r="2.9" fill="#c9a24b" opacity="0.15"/><circle cx="220" cy="110" r="1.2" fill="#c9a24b" opacity="0.06"/><circle cx="168" cy="506" r="1.9" fill="#c9a24b" opacity="0.12"/><circle cx="102" cy="136" r="2.5" fill="#c9a24b" opacity="0.11"/><circle cx="421" cy="74" r="3.2" fill="#c9a24b" opacity="0.20"/><circle cx="565" cy="323" r="1.9" fill="#c9a24b" opacity="0.12"/><circle cx="86" cy="278" r="1.6" fill="#c9a24b" opacity="0.22"/><circle cx="159" cy="527" r="2.7" fill="#c9a24b" opacity="0.11"/><circle cx="191" cy="512" r="2.8" fill="#c9a24b" opacity="0.11"/><circle cx="503" cy="371" r="3.2" fill="#c9a24b" opacity="0.18"/><circle cx="519" cy="460" r="2.4" fill="#c9a24b" opacity="0.11"/><circle cx="468" cy="181" r="1.2" fill="#c9a24b" opacity="0.11"/><circle cx="280" cy="72" r="2.2" fill="#c9a24b" opacity="0.21"/><circle cx="82" cy="454" r="1.0" fill="#c9a24b" opacity="0.19"/><circle cx="448" cy="497" r="3.1" fill="#c9a24b" opacity="0.16"/><circle cx="76" cy="191" r="2.9" fill="#c9a24b" opacity="0.12"/><circle cx="326" cy="528" r="2.3" fill="#c9a24b" opacity="0.08"/><circle cx="58" cy="258" r="1.4" fill="#c9a24b" opacity="0.17"/><circle cx="342" cy="93" r="3.2" fill="#c9a24b" opacity="0.22"/>
<circle cx="300.0" cy="300.0" r="200.0" fill="none" stroke="#c9a24b" stroke-width="1.2" opacity="0.5"/>
<circle cx="300.0" cy="300.0" r="192.0" fill="url(#p15)" stroke="#c9a24b" stroke-width="0.8" opacity="0.95"/>
<circle cx="300.0" cy="300.0" r="119.03999999999999" fill="none" stroke="#c9a24b" stroke-width="0.6" opacity="0.35"/>
<text x="300.0" y="526.0" fill="#f4efe3" opacity="0.55" font-family="Georgia,serif" font-size="16" text-anchor="middle" font-style="italic">Gallery</text>
</svg>